# xmcd
#
# Track frame offsets: 
#        150
#        15643
#        33616
#        47702
#        72235
#        91229
#        116890
#        135063
#        149941
#        164501
#        189275
#        202201
#
# Disc length: 2936 seconds
#
# Revision: 0
# Processed by: cddbd v1.5.2PL0 Copyright (c) Steve Scherf et al.
# Submitted via: ExactAudioCopy v1.3
#
DISCID=b10b760c
DTITLE=Amnesia Blues Band - Hailstone
DYEAR=2019
DGENRE=Chicago Blues
TTITLE0=Never Loved You Anyway
TTITLE1=Two Trains Running - Still A Fo
TTITLE2=Borough Blues
TTITLE3=Nullabor Blues
TTITLE4=Champagne and Reefer
TTITLE5=Out Of Time
TTITLE6=Fast Johnny Cool
TTITLE7=Crosscut Saw
TTITLE8=Thank You Babe
TTITLE9=Life Without You
TTITLE10=No Escape From The Blues
TTITLE11=Gotta Move On
EXTD=
EXTT0=
EXTT1=
EXTT2=
EXTT3=
EXTT4=
EXTT5=
EXTT6=
EXTT7=
EXTT8=
EXTT9=
EXTT10=
EXTT11=
PLAYORDER=
